<svg fill="none" height="27" viewBox="0 0 28 27" width="28" xmlns="http://www.w3.org/2000/svg"><path d="m24.5 7.63043c-1.9367 0-3.5 1.57305-3.5 3.52177 0 .0821 0 .1643.0117.2465l-2.3684.7983c-.7466-1.4205-2.1233-2.45352-3.7566-2.72352v-2.53565c1.4933-.39913 2.6133-1.77261 2.6133-3.41609 0-1.9487-1.5633-3.52174-3.5-3.52174s-3.5 1.57304-3.5 3.52174c0 1.64348 1.12 3.01696 2.625 3.41609v2.53565c-1.6333.27-3.01 1.30302-3.75667 2.72352l-2.38-.7983c.01167-.0822.01167-.1644.01167-.2465 0-1.94872-1.56333-3.52177-3.5-3.52177s-3.5 1.57305-3.5 3.52177c0 1.9487 1.56333 3.5217 3.5 3.5217 1.23667 0 2.31-.6456 2.94-1.6082l2.36833.7982c-.23333 1.5144.19834 3.1226 1.27167 4.3318l-1.645 2.0778c-.44333-.2113-.92167-.317-1.435-.317-1.93667 0-3.5 1.5731-3.5 3.5218s1.56333 3.5217 3.5 3.5217 3.5-1.573 3.5-3.5217c0-.7983-.2567-1.5261-.7-2.1131l1.645-2.0778c1.5867.8922 3.5233.8804 5.0983 0l1.645 2.0778c-.4316.587-.6883 1.3148-.6883 2.1131 0 1.9487 1.5633 3.5217 3.5 3.5217s3.5-1.573 3.5-3.5217-1.5633-3.5218-3.5-3.5218c-.5133 0-.9917.1057-1.435.3052l-1.645-2.0778c1.085-1.2209 1.505-2.8174 1.2717-4.3317l2.3683-.7983c.6183.9626 1.7033 1.6083 2.94 1.6083 1.9367 0 3.5-1.5731 3.5-3.5218 0-1.94866-1.5633-3.50997-3.5-3.50997zm-21 4.69567c-.64167 0-1.16667-.5283-1.16667-1.1739 0-.6457.525-1.17394 1.16667-1.17394s1.16667.52824 1.16667 1.17394c0 .6456-.525 1.1739-1.16667 1.1739zm3.5 12.3261c-.64167 0-1.16667-.5283-1.16667-1.1739 0-.6457.525-1.174 1.16667-1.174s1.16667.5283 1.16667 1.174c0 .6456-.525 1.1739-1.16667 1.1739zm5.8333-21.13046c0-.64565.525-1.17391 1.1667-1.17391s1.1667.52826 1.1667 1.17391-.525 1.17391-1.1667 1.17391-1.1667-.52826-1.1667-1.17391zm1.1667 14.08696c-1.61 0-2.9167-1.3148-2.9167-2.9348s1.3067-2.9348 2.9167-2.9348 2.9167 1.3148 2.9167 2.9348-1.3067 2.9348-2.9167 2.9348zm7 4.6956c.6417 0 1.1667.5283 1.1667 1.174 0 .6456-.525 1.1739-1.1667 1.1739s-1.1667-.5283-1.1667-1.1739c0-.6457.525-1.174 1.1667-1.174zm3.5-9.9782c-.6417 0-1.1667-.5283-1.1667-1.1739 0-.6457.525-1.17394 1.1667-1.17394s1.1667.52824 1.1667 1.17394c0 .6456-.525 1.1739-1.1667 1.1739z" fill="white"/></svg>
