<svg width="264" height="54" viewBox="0 0 264 54" fill="none" xmlns="http://www.w3.org/2000/svg">
<path d="M8.83039 11.2563H8.78521C4.56881 11.2563 0.984863 13.6093 0.984863 17.335C0.984863 17.4707 0.984863 17.5914 0.999922 17.7271C1.31615 22.222 9.41768 23.8963 12.851 26.37C13.7696 27.0337 14.4774 27.9387 14.4774 28.6627C14.4774 29.2811 13.9503 29.7487 12.5649 29.7789H12.4896C9.94473 29.7789 3.49965 27.5013 2.59613 22.6142L1.03004 29.251C2.80695 30.9101 5.92408 31.9207 8.9358 31.9207C13.1371 31.9207 17.1729 29.975 17.1729 25.1935C17.1729 20.5025 7.98711 18.8735 4.88504 16.2188C4.11705 15.5551 3.78576 14.9518 3.78576 14.4691C3.78576 13.5792 4.83986 13.0211 6.25537 13.0211C8.77016 13.0211 12.3993 14.7557 13.2877 19.4617L17.0976 14.5747C14.6279 12.2669 11.6012 11.2563 8.83039 11.2563Z" fill="white"/>
<path d="M29.3101 11.1356H29.28C23.9492 11.1356 18.9949 14.7104 18.6486 20.6835C18.6335 20.8645 18.6335 21.0606 18.6335 21.2416C18.6335 26.7773 22.9252 31.9207 31.9303 31.9207L36.237 24.7711C33.7524 25.827 31.6592 26.2795 29.8974 26.2795C24.5817 26.2795 22.4885 22.1466 22.4885 18.421C22.4885 15.9171 23.4222 13.6093 24.9732 12.825C25.5304 12.5384 26.1026 12.4177 26.6598 12.4177C29.9425 12.4177 33.0446 16.807 33.0898 20.1857L37.2309 14.1825C34.8818 12.101 32.0507 11.1507 29.3101 11.1356Z" fill="white"/>
<path d="M41.7033 11.2412C42.0346 11.935 42.3809 12.7345 42.7423 13.6244L35.9359 31.9207H38.812C38.3001 31.3476 37.8634 30.5783 37.8634 29.7789C37.8634 29.5225 37.9085 29.2811 37.9989 29.0247L39.4144 25.2236C42.6821 25.2387 47.019 26.9281 48.2086 31.9207H54.3977L47.4707 11.2412H41.7033ZM43.2845 14.8613C45.0463 19.1601 47.0943 24.7862 47.8773 28.8739C46.6726 26.8678 44.2633 24.4544 39.7457 24.3639L43.2845 14.8613Z" fill="white"/>
<path d="M56.536 11.2412C57.304 13.2926 57.4094 14.9819 57.4094 17.1087V26.0834C57.4094 28.1951 57.304 29.8694 56.536 31.9207H79.6058V25.8722C77.5578 29.1604 74.3052 31.1666 70.2393 31.1666H62.7853V11.2412H56.536ZM66.1283 11.2412C66.8963 13.2775 67.0168 14.9668 67.0168 17.0785V19.5824C67.0168 21.7092 66.9114 23.3985 66.1283 25.465H79.6058V19.2958C78.0849 22.2673 75.54 24.5147 72.3927 24.6957V19.7182C73.7028 18.4059 74.9226 18.0137 75.8863 18.0137C76.8952 18.0137 77.6331 18.4361 77.9343 18.6925V15.9925H77.618C74.5461 15.9925 73.0101 17.8629 72.3927 18.9489V11.9954C75.299 12.0406 77.6482 12.4026 79.1691 15.4646V11.2412H66.1283Z" fill="white"/>
<path d="M89.3637 11.2412C90.1167 13.2926 90.2371 14.9668 90.2371 17.0635V26.0985C90.2371 28.1951 90.1167 29.8694 89.3637 31.9207H96.4865C95.7185 29.8694 95.598 28.1951 95.598 26.0985V17.0635C95.598 16.5204 95.6131 16.0076 95.6432 15.4948C97.6309 18.9187 101.109 25.7516 101.109 31.9207H107.344C106.591 29.8694 106.47 28.1951 106.47 26.0985V17.0635C106.47 14.9668 106.591 13.2926 107.344 11.2412H100.221C100.899 13.0512 101.064 14.5596 101.094 16.3545H101.109V25.5706C99.6638 20.5025 97.0286 15.8869 95.7938 13.8808C95.9293 13.0361 96.1401 12.1764 96.4865 11.2412H89.3637Z" fill="white"/>
<path d="M115.129 11.2412C115.46 11.935 115.807 12.7345 116.168 13.6244L109.362 31.9207H112.238C111.726 31.3476 111.289 30.5783 111.289 29.7789C111.289 29.5225 111.334 29.2811 111.425 29.0247L112.84 25.2236C116.108 25.2387 120.445 26.9281 121.634 31.9207H127.823L120.896 11.2412H115.129ZM116.71 14.8613C118.472 19.1601 120.52 24.7862 121.303 28.8739C120.098 26.8678 117.689 24.4544 113.171 24.3639L116.71 14.8613Z" fill="white"/>
<path d="M123.938 11.2412L130.805 31.9207H136.557C136.347 31.4381 136.106 30.9101 135.865 30.337L143.183 11.2412H138.982C140.111 12.1311 140.759 13.1719 140.759 14.1071C140.759 14.3484 140.729 14.5747 140.638 14.8009L135.247 28.8889C132.988 23.4438 130.127 15.4193 130.127 11.392V11.2412H123.938Z" fill="white"/>
<path d="M145.171 11.2412C145.939 13.2926 146.059 14.9668 146.059 17.0635V26.0985C146.059 28.1951 145.939 29.8694 145.171 31.9207H152.309C151.556 29.8694 151.435 28.1951 151.435 26.0985V17.0635C151.435 14.9668 151.556 13.2926 152.309 11.2412H145.171Z" fill="white"/>
<path d="M164.13 11.2563H164.069C158.98 11.2563 154.251 14.8613 153.935 20.8796C153.92 21.0757 153.92 21.2718 153.92 21.4829C153.92 25.2538 155.832 28.8739 159.763 30.7895C161.299 31.5286 162.955 31.9207 164.551 31.9207C166.373 31.9207 168.105 31.423 169.46 30.4124L172.367 31.9207C172.367 28.5269 172.397 25.1633 172.397 21.7544H164.913C167.864 23.5494 168.828 25.3292 169.054 26.7622C168.451 27.3052 167.668 27.5163 166.825 27.5163C165.651 27.5163 164.356 27.094 163.286 26.5359C159.868 24.741 157.895 20.8193 157.895 17.6517V17.3651C158.001 14.2127 159.206 12.9909 160.757 12.9909C163.437 12.9909 167.141 16.7165 167.759 20.3818L171.719 14.3182C169.475 12.2367 166.75 11.2563 164.13 11.2563Z" fill="white"/>
<path d="M179.791 11.2412C180.122 11.935 180.468 12.7345 180.83 13.6244L174.023 31.9207H176.899C176.387 31.3476 175.951 30.5783 175.951 29.7789C175.951 29.5225 175.996 29.2811 176.086 29.0247L177.502 25.2236C180.769 25.2387 185.106 26.9281 186.296 31.9207H192.485L185.558 11.2412H179.791ZM181.372 14.8613C183.134 19.1601 185.182 24.7862 185.965 28.8739C184.76 26.8678 182.351 24.4544 177.833 24.3639L181.372 14.8613Z" fill="white"/>
<path d="M190.708 11.2412V17.2897C192.199 14.7858 194.292 13.187 196.536 12.4781V26.0532C196.536 28.1649 196.415 29.8543 195.647 31.9207H202.785C202.017 29.8543 201.912 28.1649 201.912 26.0532V12.4781C204.155 13.187 206.233 14.7858 207.724 17.2897V11.2412H190.708Z" fill="white"/>
<path d="M221.985 11.2412C213.356 11.2412 208.824 16.8824 208.824 22.2824C208.824 27.1996 212.618 31.9207 220.494 31.9207C229.123 31.9207 233.655 26.2795 233.655 20.8796C233.655 15.9624 229.875 11.2412 221.985 11.2412ZM217.964 12.7948H217.979C223.084 12.7948 228.867 20.5628 228.867 25.8119C228.867 27.6219 228.174 29.1454 226.517 29.9297C225.87 30.2314 225.192 30.3822 224.515 30.3822C219.41 30.3822 213.627 22.6293 213.627 17.3802C213.627 15.5551 214.32 14.0317 215.991 13.2473C216.624 12.9306 217.286 12.7948 217.964 12.7948Z" fill="white"/>
<path d="M235.221 11.2412C235.989 13.2926 236.095 14.9668 236.095 17.0785V26.0532C236.095 28.1649 235.989 29.8543 235.221 31.9207H242.344C241.576 29.8543 241.456 28.1649 241.456 26.0532V11.754C245.777 11.8144 247.584 14.3635 247.584 16.9428C247.584 19.6126 245.642 22.3276 242.54 22.3276C242.54 26.8527 245.461 31.9207 249.738 31.9207L252.478 26.8527C251.771 27.1694 251.078 27.3052 250.415 27.3052C247.946 27.3052 245.883 25.3443 244.512 23.0215C250.28 22.765 252.749 19.869 252.749 17.0182C252.749 14.1071 250.19 11.2412 246.018 11.2412H235.221Z" fill="white"/>
<g filter="url(#filter0_d)">
<mask id="path-2-outside-1" maskUnits="userSpaceOnUse" x="161.17" y="34.7163" width="99" height="12" fill="black">
<rect fill="white" x="161.17" y="34.7163" width="99" height="12"/>
<path d="M165.925 44.7921C168.718 44.7921 170.736 43.0921 170.736 40.3211C170.736 37.5502 168.718 35.8636 165.912 35.8636H162.17V44.7921H165.925ZM165.912 42.7842H164.469V37.8715H165.925C167.556 37.8715 168.384 38.9424 168.384 40.3211C168.384 41.6464 167.475 42.7842 165.912 42.7842Z"/>
<path d="M181.846 44.7921L178.492 35.8636H175.592L172.238 44.7921H174.843L175.284 43.507H178.799L179.24 44.7921H181.846ZM178.171 41.4991H175.913L177.049 38.1392L178.171 41.4991Z"/>
<path d="M187.504 44.9527C189.896 44.9527 191.219 43.7614 191.219 41.9676C191.219 38.6479 186.181 39.4778 186.181 38.3802C186.181 37.992 186.475 37.7644 187.143 37.7644C188.025 37.7644 189.001 38.0723 189.749 38.7014L191.005 36.9746C190.057 36.1581 188.814 35.7297 187.384 35.7297C185.098 35.7297 183.842 37.0683 183.842 38.5676C183.842 42.0078 188.88 41.0306 188.88 42.2086C188.88 42.6503 188.399 42.9181 187.624 42.9181C186.395 42.9181 185.406 42.3826 184.764 41.7401L183.548 43.5338C184.444 44.3771 185.7 44.9527 187.504 44.9527Z"/>
<path d="M202.331 44.7921V35.8636H200.032V39.1967H196.33V35.8636H194.032V44.7921H196.33V41.2046H200.032V44.7921H202.331Z"/>
<path d="M210.886 44.7921C212.637 44.7921 213.506 43.6677 213.506 42.3692C213.506 41.2448 212.757 40.3345 211.809 40.1873C212.65 39.9999 213.332 39.2503 213.332 38.1392C213.332 37.0148 212.503 35.8636 210.726 35.8636H205.674V44.7921H210.886ZM210.205 39.2636H207.973V37.8715H210.205C210.673 37.8715 210.993 38.1392 210.993 38.5676C210.993 39.0093 210.673 39.2636 210.205 39.2636ZM210.285 42.7842H207.973V41.2716H210.285C210.846 41.2716 211.167 41.5794 211.167 42.0212C211.167 42.5031 210.833 42.7842 210.285 42.7842Z"/>
<path d="M220.812 44.9527C223.538 44.9527 225.569 43.0519 225.569 40.3345C225.569 37.6171 223.538 35.7163 220.812 35.7163C218.085 35.7163 216.041 37.6171 216.041 40.3345C216.041 43.0519 218.085 44.9527 220.812 44.9527ZM220.812 42.9181C219.342 42.9181 218.379 41.7802 218.379 40.3345C218.379 38.8754 219.342 37.751 220.812 37.751C222.282 37.751 223.231 38.8754 223.231 40.3345C223.231 41.7802 222.282 42.9181 220.812 42.9181Z"/>
<path d="M236.693 44.7921L233.339 35.8636H230.439L227.085 44.7921H229.691L230.132 43.507H233.646L234.087 44.7921H236.693ZM233.018 41.4991H230.76L231.896 38.1392L233.018 41.4991Z"/>
<path d="M246.693 44.7921L244.876 41.5125C245.718 41.218 246.653 40.3881 246.653 38.8353C246.653 37.1754 245.531 35.8636 243.553 35.8636H239.089V44.7921H241.388V41.7936H242.564L244.061 44.7921H246.693ZM243.205 39.7857H241.388V37.8715H243.205C243.82 37.8715 244.314 38.2061 244.314 38.8219C244.314 39.451 243.82 39.7857 243.205 39.7857Z"/>
<path d="M253.417 44.7921C256.21 44.7921 258.228 43.0921 258.228 40.3211C258.228 37.5502 256.21 35.8636 253.404 35.8636H249.662V44.7921H253.417ZM253.404 42.7842H251.96V37.8715H253.417C255.048 37.8715 255.876 38.9424 255.876 40.3211C255.876 41.6464 254.967 42.7842 253.404 42.7842Z"/>
</mask>
<path d="M165.925 44.7921C168.718 44.7921 170.736 43.0921 170.736 40.3211C170.736 37.5502 168.718 35.8636 165.912 35.8636H162.17V44.7921H165.925ZM165.912 42.7842H164.469V37.8715H165.925C167.556 37.8715 168.384 38.9424 168.384 40.3211C168.384 41.6464 167.475 42.7842 165.912 42.7842Z" fill="#FFDE6A"/>
<path d="M181.846 44.7921L178.492 35.8636H175.592L172.238 44.7921H174.843L175.284 43.507H178.799L179.24 44.7921H181.846ZM178.171 41.4991H175.913L177.049 38.1392L178.171 41.4991Z" fill="#FFDE6A"/>
<path d="M187.504 44.9527C189.896 44.9527 191.219 43.7614 191.219 41.9676C191.219 38.6479 186.181 39.4778 186.181 38.3802C186.181 37.992 186.475 37.7644 187.143 37.7644C188.025 37.7644 189.001 38.0723 189.749 38.7014L191.005 36.9746C190.057 36.1581 188.814 35.7297 187.384 35.7297C185.098 35.7297 183.842 37.0683 183.842 38.5676C183.842 42.0078 188.88 41.0306 188.88 42.2086C188.88 42.6503 188.399 42.9181 187.624 42.9181C186.395 42.9181 185.406 42.3826 184.764 41.7401L183.548 43.5338C184.444 44.3771 185.7 44.9527 187.504 44.9527Z" fill="#FFDE6A"/>
<path d="M202.331 44.7921V35.8636H200.032V39.1967H196.33V35.8636H194.032V44.7921H196.33V41.2046H200.032V44.7921H202.331Z" fill="#FFDE6A"/>
<path d="M210.886 44.7921C212.637 44.7921 213.506 43.6677 213.506 42.3692C213.506 41.2448 212.757 40.3345 211.809 40.1873C212.65 39.9999 213.332 39.2503 213.332 38.1392C213.332 37.0148 212.503 35.8636 210.726 35.8636H205.674V44.7921H210.886ZM210.205 39.2636H207.973V37.8715H210.205C210.673 37.8715 210.993 38.1392 210.993 38.5676C210.993 39.0093 210.673 39.2636 210.205 39.2636ZM210.285 42.7842H207.973V41.2716H210.285C210.846 41.2716 211.167 41.5794 211.167 42.0212C211.167 42.5031 210.833 42.7842 210.285 42.7842Z" fill="#FFDE6A"/>
<path d="M220.812 44.9527C223.538 44.9527 225.569 43.0519 225.569 40.3345C225.569 37.6171 223.538 35.7163 220.812 35.7163C218.085 35.7163 216.041 37.6171 216.041 40.3345C216.041 43.0519 218.085 44.9527 220.812 44.9527ZM220.812 42.9181C219.342 42.9181 218.379 41.7802 218.379 40.3345C218.379 38.8754 219.342 37.751 220.812 37.751C222.282 37.751 223.231 38.8754 223.231 40.3345C223.231 41.7802 222.282 42.9181 220.812 42.9181Z" fill="#FFDE6A"/>
<path d="M236.693 44.7921L233.339 35.8636H230.439L227.085 44.7921H229.691L230.132 43.507H233.646L234.087 44.7921H236.693ZM233.018 41.4991H230.76L231.896 38.1392L233.018 41.4991Z" fill="#FFDE6A"/>
<path d="M246.693 44.7921L244.876 41.5125C245.718 41.218 246.653 40.3881 246.653 38.8353C246.653 37.1754 245.531 35.8636 243.553 35.8636H239.089V44.7921H241.388V41.7936H242.564L244.061 44.7921H246.693ZM243.205 39.7857H241.388V37.8715H243.205C243.82 37.8715 244.314 38.2061 244.314 38.8219C244.314 39.451 243.82 39.7857 243.205 39.7857Z" fill="#FFDE6A"/>
<path d="M253.417 44.7921C256.21 44.7921 258.228 43.0921 258.228 40.3211C258.228 37.5502 256.21 35.8636 253.404 35.8636H249.662V44.7921H253.417ZM253.404 42.7842H251.96V37.8715H253.417C255.048 37.8715 255.876 38.9424 255.876 40.3211C255.876 41.6464 254.967 42.7842 253.404 42.7842Z" fill="#FFDE6A"/>
<path d="M165.925 44.7921C168.718 44.7921 170.736 43.0921 170.736 40.3211C170.736 37.5502 168.718 35.8636 165.912 35.8636H162.17V44.7921H165.925ZM165.912 42.7842H164.469V37.8715H165.925C167.556 37.8715 168.384 38.9424 168.384 40.3211C168.384 41.6464 167.475 42.7842 165.912 42.7842Z" stroke="black" stroke-width="2" mask="url(#path-2-outside-1)"/>
<path d="M181.846 44.7921L178.492 35.8636H175.592L172.238 44.7921H174.843L175.284 43.507H178.799L179.24 44.7921H181.846ZM178.171 41.4991H175.913L177.049 38.1392L178.171 41.4991Z" stroke="black" stroke-width="2" mask="url(#path-2-outside-1)"/>
<path d="M187.504 44.9527C189.896 44.9527 191.219 43.7614 191.219 41.9676C191.219 38.6479 186.181 39.4778 186.181 38.3802C186.181 37.992 186.475 37.7644 187.143 37.7644C188.025 37.7644 189.001 38.0723 189.749 38.7014L191.005 36.9746C190.057 36.1581 188.814 35.7297 187.384 35.7297C185.098 35.7297 183.842 37.0683 183.842 38.5676C183.842 42.0078 188.88 41.0306 188.88 42.2086C188.88 42.6503 188.399 42.9181 187.624 42.9181C186.395 42.9181 185.406 42.3826 184.764 41.7401L183.548 43.5338C184.444 44.3771 185.7 44.9527 187.504 44.9527Z" stroke="black" stroke-width="2" mask="url(#path-2-outside-1)"/>
<path d="M202.331 44.7921V35.8636H200.032V39.1967H196.33V35.8636H194.032V44.7921H196.33V41.2046H200.032V44.7921H202.331Z" stroke="black" stroke-width="2" mask="url(#path-2-outside-1)"/>
<path d="M210.886 44.7921C212.637 44.7921 213.506 43.6677 213.506 42.3692C213.506 41.2448 212.757 40.3345 211.809 40.1873C212.65 39.9999 213.332 39.2503 213.332 38.1392C213.332 37.0148 212.503 35.8636 210.726 35.8636H205.674V44.7921H210.886ZM210.205 39.2636H207.973V37.8715H210.205C210.673 37.8715 210.993 38.1392 210.993 38.5676C210.993 39.0093 210.673 39.2636 210.205 39.2636ZM210.285 42.7842H207.973V41.2716H210.285C210.846 41.2716 211.167 41.5794 211.167 42.0212C211.167 42.5031 210.833 42.7842 210.285 42.7842Z" stroke="black" stroke-width="2" mask="url(#path-2-outside-1)"/>
<path d="M220.812 44.9527C223.538 44.9527 225.569 43.0519 225.569 40.3345C225.569 37.6171 223.538 35.7163 220.812 35.7163C218.085 35.7163 216.041 37.6171 216.041 40.3345C216.041 43.0519 218.085 44.9527 220.812 44.9527ZM220.812 42.9181C219.342 42.9181 218.379 41.7802 218.379 40.3345C218.379 38.8754 219.342 37.751 220.812 37.751C222.282 37.751 223.231 38.8754 223.231 40.3345C223.231 41.7802 222.282 42.9181 220.812 42.9181Z" stroke="black" stroke-width="2" mask="url(#path-2-outside-1)"/>
<path d="M236.693 44.7921L233.339 35.8636H230.439L227.085 44.7921H229.691L230.132 43.507H233.646L234.087 44.7921H236.693ZM233.018 41.4991H230.76L231.896 38.1392L233.018 41.4991Z" stroke="black" stroke-width="2" mask="url(#path-2-outside-1)"/>
<path d="M246.693 44.7921L244.876 41.5125C245.718 41.218 246.653 40.3881 246.653 38.8353C246.653 37.1754 245.531 35.8636 243.553 35.8636H239.089V44.7921H241.388V41.7936H242.564L244.061 44.7921H246.693ZM243.205 39.7857H241.388V37.8715H243.205C243.82 37.8715 244.314 38.2061 244.314 38.8219C244.314 39.451 243.82 39.7857 243.205 39.7857Z" stroke="black" stroke-width="2" mask="url(#path-2-outside-1)"/>
<path d="M253.417 44.7921C256.21 44.7921 258.228 43.0921 258.228 40.3211C258.228 37.5502 256.21 35.8636 253.404 35.8636H249.662V44.7921H253.417ZM253.404 42.7842H251.96V37.8715H253.417C255.048 37.8715 255.876 38.9424 255.876 40.3211C255.876 41.6464 254.967 42.7842 253.404 42.7842Z" stroke="black" stroke-width="2" mask="url(#path-2-outside-1)"/>
</g>
<defs>
<filter id="filter0_d" x="157.17" y="34.7163" width="106.058" height="19.2364" filterUnits="userSpaceOnUse" color-interpolation-filters="sRGB">
<feFlood flood-opacity="0" result="BackgroundImageFix"/>
<feColorMatrix in="SourceAlpha" type="matrix" values="0 0 0 0 0 0 0 0 0 0 0 0 0 0 0 0 0 0 127 0" result="hardAlpha"/>
<feOffset dy="4"/>
<feGaussianBlur stdDeviation="2"/>
<feComposite in2="hardAlpha" operator="out"/>
<feColorMatrix type="matrix" values="0 0 0 0 0 0 0 0 0 0 0 0 0 0 0 0 0 0 0.25 0"/>
<feBlend mode="normal" in2="BackgroundImageFix" result="effect1_dropShadow"/>
<feBlend mode="normal" in="SourceGraphic" in2="effect1_dropShadow" result="shape"/>
</filter>
</defs>
</svg>
