<svg width="36" height="18" viewBox="0 0 36 18" fill="none" xmlns="http://www.w3.org/2000/svg">
<path d="M6 10.5C7.65 10.5 9 9.15 9 7.5C9 5.85 7.65 4.5 6 4.5C4.35 4.5 3 5.85 3 7.5C3 9.15 4.35 10.5 6 10.5ZM7.695 12.15C7.14 12.06 6.585 12 6 12C4.515 12 3.105 12.315 1.83 12.87C0.72 13.35 0 14.43 0 15.645V18H6.75V15.585C6.75 14.34 7.095 13.17 7.695 12.15ZM30 10.5C31.65 10.5 33 9.15 33 7.5C33 5.85 31.65 4.5 30 4.5C28.35 4.5 27 5.85 27 7.5C27 9.15 28.35 10.5 30 10.5ZM36 15.645C36 14.43 35.28 13.35 34.17 12.87C32.895 12.315 31.485 12 30 12C29.415 12 28.86 12.06 28.305 12.15C28.905 13.17 29.25 14.34 29.25 15.585V18H36V15.645ZM24.36 11.475C22.605 10.695 20.445 10.125 18 10.125C15.555 10.125 13.395 10.71 11.64 11.475C10.02 12.195 9 13.815 9 15.585V18H27V15.585C27 13.815 25.98 12.195 24.36 11.475ZM12.105 15C12.24 14.655 12.3 14.415 13.47 13.965C14.925 13.395 16.455 13.125 18 13.125C19.545 13.125 21.075 13.395 22.53 13.965C23.685 14.415 23.745 14.655 23.895 15H12.105ZM18 3C18.825 3 19.5 3.675 19.5 4.5C19.5 5.325 18.825 6 18 6C17.175 6 16.5 5.325 16.5 4.5C16.5 3.675 17.175 3 18 3ZM18 0C15.51 0 13.5 2.01 13.5 4.5C13.5 6.99 15.51 9 18 9C20.49 9 22.5 6.99 22.5 4.5C22.5 2.01 20.49 0 18 0Z" fill="white"/>
</svg>
