<svg width="27" height="28" viewBox="0 0 27 28" fill="none" xmlns="http://www.w3.org/2000/svg">
<path d="M24 0.5H3C1.35 0.5 0 1.85 0 3.5V24.5C0 26.15 1.35 27.5 3 27.5H24C25.65 27.5 27 26.15 27 24.5V3.5C27 1.85 25.65 0.5 24 0.5ZM16.5 17.75H16.875V24.5H10.125V17.75H10.5C11.325 17.75 12 17.075 12 16.25V3.5H15V16.25C15 17.075 15.675 17.75 16.5 17.75ZM3 3.5H6V16.25C6 17.075 6.675 17.75 7.5 17.75H7.875V24.5H3V3.5ZM24 24.5H19.125V17.75H19.5C20.325 17.75 21 17.075 21 16.25V3.5H24V24.5Z" fill="white"/>
</svg>
