<svg width="512" height="512" viewBox="0 0 512 512" xmlns="http://www.w3.org/2000/svg">
  <defs>
    <radialGradient id="yellowGradient" cx="50%" cy="50%" r="50%">
      <stop offset="0%" style="stop-color:#FFD700;stop-opacity:1" />
      <stop offset="100%" style="stop-color:#FFA500;stop-opacity:1" />
    </radialGradient>
    <radialGradient id="whiteGradient" cx="50%" cy="50%" r="50%">
      <stop offset="0%" style="stop-color:#FFFFFF;stop-opacity:1" />
      <stop offset="100%" style="stop-color:#F0F0F0;stop-opacity:1" />
    </radialGradient>
  </defs>
  
  <!-- Background -->
  <rect width="512" height="512" fill="#2C2C2C"/>
  
  <!-- Central yellow hexagon -->
  <polygon points="256,100 356,150 356,250 256,300 156,250 156,150" 
           fill="url(#yellowGradient)" 
           stroke="none" 
           stroke-width="0" 
           transform="translate(0,0)" 
           style="filter: drop-shadow(0 4px 8px rgba(255, 215, 0, 0.3))"/>
  
  <!-- Top white hexagon -->
  <polygon points="256,50 306,75 306,125 256,150 206,125 206,75" 
           fill="url(#whiteGradient)" 
           stroke="none" 
           stroke-width="0" 
           style="filter: drop-shadow(0 2px 4px rgba(255, 255, 255, 0.2))"/>
  
  <!-- Bottom white hexagon -->
  <polygon points="256,250 306,275 306,325 256,350 206,325 206,275" 
           fill="url(#whiteGradient)" 
           stroke="none" 
           stroke-width="0" 
           style="filter: drop-shadow(0 2px 4px rgba(255, 255, 255, 0.2))"/>
  
  <!-- Left white rectangle (rotated) -->
  <rect x="100" y="200" width="40" height="20" 
        fill="url(#whiteGradient)" 
        stroke="none" 
        stroke-width="0" 
        transform="rotate(-30 120 210)" 
        style="filter: drop-shadow(0 2px 4px rgba(255, 255, 255, 0.2))"/>
  
  <!-- Right white rectangle (rotated) -->
  <rect x="372" y="200" width="40" height="20" 
        fill="url(#whiteGradient)" 
        stroke="none" 
        stroke-width="0" 
        transform="rotate(30 392 210)" 
        style="filter: drop-shadow(0 2px 4px rgba(255, 255, 255, 0.2))"/>
  
  <!-- Top-left white rectangle (rotated) -->
  <rect x="150" y="120" width="40" height="20" 
        fill="url(#whiteGradient)" 
        stroke="none" 
        stroke-width="0" 
        transform="rotate(-60 170 130)" 
        style="filter: drop-shadow(0 2px 4px rgba(255, 255, 255, 0.2))"/>
  
  <!-- Top-right white rectangle (rotated) -->
  <rect x="322" y="120" width="40" height="20" 
        fill="url(#whiteGradient)" 
        stroke="none" 
        stroke-width="0" 
        transform="rotate(60 342 130)" 
        style="filter: drop-shadow(0 2px 4px rgba(255, 255, 255, 0.2))"/>
</svg>
