<svg xmlns="http://www.w3.org/2000/svg" width="100%" height="100%" viewBox="0 0 589 132" fill="none">
<path d="M19.2812 0.835938H19.1758C9.33203 0.835938 0.964844 6.32031 0.964844 15.0039C0.964844 15.3203 0.964844 15.6016 1 15.918C1.73828 26.3945 20.6523 30.2969 28.668 36.0625C30.8125 37.6094 32.4648 39.7188 32.4648 41.4062C32.4648 42.8477 31.2344 43.9375 28 44.0078H27.8242C21.8828 44.0078 6.83594 38.6992 4.72656 27.3086L1.07031 42.7773C5.21875 46.6445 12.4961 49 19.5273 49C29.3359 49 38.7578 44.4648 38.7578 33.3203C38.7578 22.3867 17.3125 18.5898 10.0703 12.4023C8.27734 10.8555 7.50391 9.44922 7.50391 8.32422C7.50391 6.25 9.96484 4.94922 13.2695 4.94922C19.1406 4.94922 27.6133 8.99219 29.6875 19.9609L38.582 8.57031C32.8164 3.19141 25.75 0.835938 19.2812 0.835938Z" fill="white"/>
<path d="M67.0938 0.554688H67.0234C54.5781 0.554688 43.0117 8.88672 42.2031 22.8086C42.168 23.2305 42.168 23.6875 42.168 24.1094C42.168 37.0117 52.1875 49 73.2109 49L83.2656 32.3359C77.4648 34.7969 72.5781 35.8516 68.4648 35.8516C56.0547 35.8516 51.168 26.2188 51.168 17.5352C51.168 11.6992 53.3477 6.32031 56.9688 4.49219C58.2695 3.82422 59.6055 3.54297 60.9062 3.54297C68.5703 3.54297 75.8125 13.7734 75.918 21.6484L85.5859 7.65625C80.1016 2.80469 73.4922 0.589844 67.0938 0.554688Z" fill="white"/>
<path d="M96.0273 0.800781C96.8008 2.41797 97.6094 4.28125 98.4531 6.35547L82.5625 49H89.2773C88.082 47.6641 87.0625 45.8711 87.0625 44.0078C87.0625 43.4102 87.168 42.8477 87.3789 42.25L90.6836 33.3906C98.3125 33.4258 108.438 37.3633 111.215 49H125.664L109.492 0.800781H96.0273ZM99.7188 9.23828C103.832 19.2578 108.613 32.3711 110.441 41.8984C107.629 37.2227 102.004 31.5977 91.457 31.3867L99.7188 9.23828Z" fill="white"/>
<path d="M130.656 0.800781C132.449 5.58203 132.695 9.51953 132.695 14.4766V35.3945C132.695 40.3164 132.449 44.2188 130.656 49H184.516V34.9023C179.734 42.5664 172.141 47.2422 162.648 47.2422H145.246V0.800781H130.656ZM153.051 0.800781C154.844 5.54688 155.125 9.48438 155.125 14.4062V20.2422C155.125 25.1992 154.879 29.1367 153.051 33.9531H184.516V19.5742C180.965 26.5 175.023 31.7383 167.676 32.1602V20.5586C170.734 17.5 173.582 16.5859 175.832 16.5859C178.188 16.5859 179.91 17.5703 180.613 18.168V11.875H179.875C172.703 11.875 169.117 16.2344 167.676 18.7656V2.55859C174.461 2.66406 179.945 3.50781 183.496 10.6445V0.800781H153.051Z" fill="white"/>
<path d="M207.297 0.800781C209.055 5.58203 209.336 9.48438 209.336 14.3711V35.4297C209.336 40.3164 209.055 44.2188 207.297 49H223.926C222.133 44.2188 221.852 40.3164 221.852 35.4297V14.3711C221.852 13.1055 221.887 11.9102 221.957 10.7148C226.598 18.6953 234.719 34.6211 234.719 49H249.273C247.516 44.2188 247.234 40.3164 247.234 35.4297V14.3711C247.234 9.48438 247.516 5.58203 249.273 0.800781H232.645C234.227 5.01953 234.613 8.53516 234.684 12.7188H234.719V34.1992C231.344 22.3867 225.191 11.6289 222.309 6.95312C222.625 4.98438 223.117 2.98047 223.926 0.800781H207.297Z" fill="white"/>
<path d="M267.449 0.800781C268.223 2.41797 269.031 4.28125 269.875 6.35547L253.984 49H260.699C259.504 47.6641 258.484 45.8711 258.484 44.0078C258.484 43.4102 258.59 42.8477 258.801 42.25L262.105 33.3906C269.734 33.4258 279.859 37.3633 282.637 49H297.086L280.914 0.800781H267.449ZM271.141 9.23828C275.254 19.2578 280.035 32.3711 281.863 41.8984C279.051 37.2227 273.426 31.5977 262.879 31.3867L271.141 9.23828Z" fill="white"/>
<path d="M288.016 0.800781L304.047 49H317.477C316.984 47.875 316.422 46.6445 315.859 45.3086L332.945 0.800781H323.137C325.773 2.875 327.285 5.30078 327.285 7.48047C327.285 8.04297 327.215 8.57031 327.004 9.09766L314.418 41.9336C309.145 29.2422 302.465 10.5391 302.465 1.15234V0.800781H288.016Z" fill="white"/>
<path d="M337.586 0.800781C339.379 5.58203 339.66 9.48438 339.66 14.3711V35.4297C339.66 40.3164 339.379 44.2188 337.586 49H354.25C352.492 44.2188 352.211 40.3164 352.211 35.4297V14.3711C352.211 9.48438 352.492 5.58203 354.25 0.800781H337.586Z" fill="white"/>
<path d="M381.848 0.835938H381.707C369.824 0.835938 358.785 9.23828 358.047 23.2656C358.012 23.7227 358.012 24.1797 358.012 24.6719C358.012 33.4609 362.477 41.8984 371.652 46.3633C375.238 48.0859 379.105 49 382.832 49C387.086 49 391.129 47.8398 394.293 45.4844L401.078 49C401.078 41.0898 401.148 33.25 401.148 25.3047H383.676C390.566 29.4883 392.816 33.6367 393.344 36.9766C391.938 38.2422 390.109 38.7344 388.141 38.7344C385.398 38.7344 382.375 37.75 379.879 36.4492C371.898 32.2656 367.293 23.125 367.293 15.7422V15.0742C367.539 7.72656 370.352 4.87891 373.973 4.87891C380.23 4.87891 388.879 13.5625 390.32 22.1055L399.566 7.97266C394.328 3.12109 387.965 0.835938 381.848 0.835938Z" fill="white"/>
<path d="M418.41 0.800781C419.184 2.41797 419.992 4.28125 420.836 6.35547L404.945 49H411.66C410.465 47.6641 409.445 45.8711 409.445 44.0078C409.445 43.4102 409.551 42.8477 409.762 42.25L413.066 33.3906C420.695 33.4258 430.82 37.3633 433.598 49H448.047L431.875 0.800781H418.41ZM422.102 9.23828C426.215 19.2578 430.996 32.3711 432.824 41.8984C430.012 37.2227 424.387 31.5977 413.84 31.3867L422.102 9.23828Z" fill="white"/>
<path d="M443.898 0.800781V14.8984C447.379 9.0625 452.266 5.33594 457.504 3.68359V35.3242C457.504 40.2461 457.223 44.1836 455.43 49H472.094C470.301 44.1836 470.055 40.2461 470.055 35.3242V3.68359C475.293 5.33594 480.145 9.0625 483.625 14.8984V0.800781H443.898Z" fill="white"/>
<path d="M516.918 0.800781C496.773 0.800781 486.191 13.9492 486.191 26.5352C486.191 37.9961 495.051 49 513.438 49C533.582 49 544.164 35.8516 544.164 23.2656C544.164 11.8047 535.34 0.800781 516.918 0.800781ZM507.531 4.42188H507.566C519.484 4.42188 532.984 22.5273 532.984 34.7617C532.984 38.9805 531.367 42.5312 527.5 44.3594C525.988 45.0625 524.406 45.4141 522.824 45.4141C510.906 45.4141 497.406 27.3438 497.406 15.1094C497.406 10.8555 499.023 7.30469 502.926 5.47656C504.402 4.73828 505.949 4.42188 507.531 4.42188Z" fill="white"/>
<path d="M547.82 0.800781C549.613 5.58203 549.859 9.48438 549.859 14.4062V35.3242C549.859 40.2461 549.613 44.1836 547.82 49H564.449C562.656 44.1836 562.375 40.2461 562.375 35.3242V1.99609C572.465 2.13672 576.684 8.07812 576.684 14.0898C576.684 20.3125 572.148 26.6406 564.906 26.6406C564.906 37.1875 571.727 49 581.711 49L588.109 37.1875C586.457 37.9258 584.84 38.2422 583.293 38.2422C577.527 38.2422 572.711 33.6719 569.512 28.2578C582.977 27.6602 588.742 20.9102 588.742 14.2656C588.742 7.48047 582.766 0.800781 573.027 0.800781H547.82Z" fill="white"/>
<path d="M370.012 42.4023C359.953 42.4219 346.809 47.2461 335.402 54.0039C327.414 58.75 320.227 64.4727 315.559 70.0977C312.043 74.375 309.914 78.6328 309.914 82.4805C309.914 83.9062 310.207 85.2734 310.832 86.5625C312.883 90.9766 318.586 94.2969 329.328 95.8398H329.445C329.953 95.8398 330.363 95.4688 330.461 95C330.461 94.9414 330.48 94.9023 330.48 94.8438C330.48 94.3555 330.109 93.9258 329.602 93.8672C319.621 92.4609 314.387 89.5117 312.609 85.7227C312.121 84.707 311.887 83.6133 311.887 82.4609C311.887 79.1016 313.84 75.2734 317.043 71.3672C321.574 65.918 328.586 60.3906 336.379 55.7422C347.59 49.1016 360.441 44.3164 370.012 44.3164C374.562 44.3164 378.352 45.3906 380.891 47.8711C382.863 49.7852 383.879 52.3633 384.211 55.4102C384.27 56.0156 384.309 56.6406 384.309 57.2852C384.309 63.2422 381.828 70.5273 377.902 77.8906C376.047 81.4453 373.801 85.0195 371.359 88.4375C365.812 89.9414 359.973 91.7578 354.504 93.8281C349.973 95.5273 345.695 97.4023 342.062 99.3359C348.156 83.3789 355.676 68.8086 355.715 68.7891C355.793 68.6328 355.812 68.4766 355.812 68.3203C355.812 67.9492 355.637 67.6172 355.305 67.4219C355.148 67.3633 354.992 67.3242 354.855 67.3242C354.484 67.3242 354.152 67.5195 353.938 67.8516C353.898 67.9297 345.656 83.9062 339.406 100.84C335.793 103.027 333.078 105.312 331.809 107.578C331.066 108.848 330.754 110.137 330.754 111.309C330.754 111.484 330.754 111.641 330.773 111.797C330.871 112.637 331.145 113.477 331.672 114.238C332.141 114.941 332.785 115.547 333.625 116.016C334.777 116.68 336.281 117.07 338.059 117.07C338.508 117.07 338.957 117.031 339.426 116.992C346.047 116.348 354.406 110.566 362.258 102.559C365.91 98.8086 369.406 94.5703 372.59 90.1758C381.086 87.9102 388.742 86.5039 392.902 86.4258C393.449 86.4258 393.879 85.957 393.879 85.4297C393.879 84.8633 393.41 84.4531 392.902 84.4531C388.938 84.5508 382.062 85.7227 374.309 87.6758C376.262 84.7852 378.098 81.7773 379.641 78.8281C383.703 71.1914 386.262 63.5742 386.262 57.2656C386.262 56.5625 386.223 55.8594 386.164 55.1758C385.793 51.6992 384.582 48.7109 382.258 46.4648C379.406 43.6328 375.148 42.4023 370.129 42.4023H370.012ZM369.504 91.0156C366.789 94.6289 363.84 98.0469 360.852 101.152C353.332 108.887 345.344 114.414 339.23 115.02C338.82 115.059 338.41 115.078 338.039 115.078C336.613 115.078 335.441 114.805 334.602 114.277C334.055 114.004 333.625 113.574 333.293 113.105C332.98 112.676 332.785 112.129 332.746 111.562C332.727 111.445 332.727 111.328 332.727 111.191C332.727 110.391 333 109.492 333.488 108.555C334.387 107.012 336.066 105.43 338.312 103.867C337.316 106.719 336.398 109.57 335.598 112.363C335.578 112.461 335.559 112.559 335.559 112.656C335.559 113.086 335.832 113.477 336.242 113.613C336.32 113.633 336.418 113.652 336.496 113.652C336.926 113.652 337.336 113.34 337.453 112.91C338.469 109.395 339.699 105.762 341.008 102.168C344.895 99.9023 349.836 97.6953 355.168 95.7031C359.836 93.9648 364.738 92.3828 369.504 91.0156Z" fill="#FEDD73"/>
<path d="M404.621 77.2852C404.289 77.2852 403.977 77.4414 403.762 77.7344C403.762 77.7344 403.254 78.5352 402.355 79.8438C401.379 79.4922 400.227 79.1602 399.074 79.1602C398.215 79.1602 397.336 79.3555 396.535 79.9023C393.117 82.1094 390.188 87.9688 389.113 92.0312C388.82 93.125 388.684 94.0625 388.684 94.8438C388.684 95.8398 388.977 96.6406 389.523 97.0117C389.777 97.207 390.09 97.3242 390.422 97.3242C390.637 97.3242 390.871 97.2852 391.105 97.1875C392.473 96.7773 396.066 92.1289 399.328 87.6367C398.352 89.9219 397.414 92.3242 396.574 94.668C395.461 97.6562 394.621 100.527 394.191 102.734C394.055 103.535 393.996 104.121 393.996 104.766C393.996 106.25 394.406 107.305 395.383 107.695C395.48 107.754 395.559 107.754 395.715 107.793C395.832 107.812 395.969 107.832 396.105 107.832C397.941 107.832 400.754 105.625 403.762 102.441C409.504 96.4062 416.223 87.207 416.789 86.3672C416.887 86.1914 416.926 86.0156 416.926 85.8398C416.926 85.5078 416.789 85.1758 416.516 84.9609C416.359 84.8633 416.184 84.8242 416.008 84.8242C415.656 84.8242 415.324 84.9805 415.109 85.293C414.602 86.1328 407.961 95.1367 402.355 101.094C399.66 103.926 397.297 105.898 396.242 105.898C396.203 105.898 396.164 105.879 396.125 105.879C395.969 105.801 395.891 105.508 395.891 105.039C395.891 104.531 395.969 103.945 396.105 103.047C396.477 100.996 397.375 98.2227 398.391 95.3711C400.91 88.3789 404.562 80.6055 405.441 78.7695C405.539 78.6328 405.598 78.457 405.598 78.2812C405.598 77.9688 405.441 77.6367 405.168 77.4609C404.992 77.3438 404.797 77.2852 404.621 77.2852ZM399.074 81.1523C399.777 81.1523 400.52 81.3281 401.203 81.543C397.883 86.4062 392.277 94.3359 390.656 95.2734V94.8438C390.656 94.2383 390.793 93.4375 391.027 92.5586C392.004 88.8086 394.621 83.457 397.609 81.543C398.039 81.25 398.547 81.1523 399.074 81.1523Z" fill="#FEDD73"/>
<path d="M454.484 44.2773H454.465C453.508 44.2773 452.043 46.2109 450.266 49.4141C447.98 53.5742 444.855 60.0391 441.828 66.875C437.805 72.7344 433.234 79.1406 428.898 85.2344C426.008 89.2969 423.176 93.2422 420.695 96.7969C419.582 95.0195 417.941 93.1055 415.656 91.1719L415.52 91.0742C415.207 90.7617 415.07 90.3516 415.07 89.9023C415.07 89.707 415.09 89.4727 415.148 89.2578V89.2188C415.383 88.3203 415.988 87.3438 416.828 86.3477C417.062 86.0742 417.336 85.8008 417.629 85.4688C420.148 82.8906 422.473 81.8555 423.918 81.8555C424.289 81.8555 424.523 81.9141 424.699 82.0508C424.797 82.0898 424.895 82.1875 424.895 82.2852L424.934 82.3242V82.4219C424.934 82.7539 424.699 83.2227 424.191 83.8281C424.016 84.0234 423.938 84.2578 423.938 84.4727C423.938 84.7656 424.055 85.0391 424.289 85.2344C424.465 85.3906 424.68 85.4688 424.895 85.4688C425.188 85.4688 425.48 85.3516 425.695 85.1367C426.496 84.1602 426.906 83.2422 426.906 82.4023C426.906 82.2461 426.887 82.0703 426.848 81.9141L426.809 81.8164C426.672 81.1523 426.301 80.6836 425.734 80.3125C425.266 80.0391 424.621 79.8828 423.918 79.8828C422.004 79.8828 419.152 81.0547 416.223 84.1016C415.891 84.4336 415.578 84.7656 415.285 85.0977C414.309 86.2695 413.566 87.5195 413.293 88.75H413.234C413.137 89.1406 413.078 89.5508 413.078 89.9219C413.078 90.8789 413.41 91.7578 414.172 92.4805C414.211 92.5391 414.309 92.6367 414.406 92.6758C416.867 94.7852 418.508 96.7578 419.445 98.6133C415.188 104.668 412.082 109.492 411.242 111.641V111.738C411.066 112.188 410.969 112.578 410.969 112.93C410.969 113.496 411.242 113.906 411.789 114.121C411.945 114.18 412.141 114.219 412.375 114.219C413.547 114.219 415.559 113.418 417.434 112.012C418.742 111.035 419.992 109.727 420.93 108.125C421.867 106.582 422.473 104.824 422.473 102.793V102.598C422.473 101.387 422.199 100.117 421.672 98.8086C424.328 95.0586 427.375 90.8008 430.48 86.4062C432.961 82.8906 435.52 79.3359 438 75.8203C436.125 80.3516 434.445 84.668 433.293 88.2812C432.102 91.7773 431.398 94.668 431.398 96.5234C431.398 97.5977 431.633 98.3203 432.16 98.6133C432.297 98.6914 432.453 98.7109 432.609 98.7109C432.961 98.7109 433.312 98.5352 433.469 98.2031L433.762 97.7344C437.102 91.543 444.621 77.6953 448.293 77.6953C448.449 77.6953 448.605 77.7344 448.762 77.793C449.055 77.8906 449.172 78.3984 449.172 79.1602C449.172 80.1172 448.996 81.4453 448.82 82.8906C448.645 84.4336 448.449 86.0352 448.449 87.5195C448.449 89.1016 448.664 90.5859 449.367 91.6992C450.109 92.832 451.301 93.5352 453.156 93.5352C456.281 93.5352 461.301 91.5625 469.328 86.3477C469.621 86.1523 469.777 85.8398 469.777 85.5273C469.777 85.332 469.719 85.1562 469.602 85C469.426 84.6875 469.094 84.5312 468.762 84.5312C468.586 84.5312 468.41 84.5703 468.254 84.668C460.363 89.8047 455.852 91.6797 453.371 91.6797C452.199 91.6797 451.477 91.2695 451.047 90.6055C450.578 89.8633 450.422 88.7695 450.422 87.5C450.422 86.1523 450.598 84.6289 450.773 83.1641C450.93 81.7969 451.105 80.4883 451.105 79.3555C451.105 77.6953 450.734 76.4453 449.504 75.957C449.211 75.8398 448.898 75.7812 448.566 75.7812C444.074 75.7812 437.492 86.8555 433.527 93.9844C433.898 92.6758 434.445 90.9375 435.148 88.9258C437.023 83.3203 440.051 75.8203 443.215 68.6523L443.547 67.8516C449.465 59.2383 454.23 51.7578 455.52 47.9688C455.754 47.2656 455.891 46.6406 455.891 46.1133C455.891 45.1953 455.5 44.5703 454.68 44.3164C454.621 44.2773 454.562 44.2773 454.484 44.2773ZM454.074 46.1719V46.1914C454.074 46.2695 453.879 46.6797 453.625 47.3438C453 49.1797 451.477 52.0312 449.328 55.5469C450.266 53.5742 451.184 51.7969 451.984 50.3516C453.352 47.8516 453.977 46.1914 454.074 46.1719ZM420.285 100.859C420.422 101.484 420.52 102.031 420.52 102.656V102.832C420.52 104.395 420.031 105.879 419.25 107.148C418.469 108.457 417.336 109.57 416.223 110.41C415.012 111.348 413.898 111.973 413.137 112.207C413.938 110.234 416.633 106.113 420.285 100.859Z" fill="#FEDD73"/>
<path d="M488.605 38.5938C488.234 38.5938 487.863 38.8086 487.688 39.1602C484.758 45.3125 475.598 65.7031 469.68 80.6055C466.633 88.2422 464.504 94.5703 464.504 97.2656C464.504 97.9688 464.641 98.418 464.953 98.5938C465.109 98.6719 465.266 98.7109 465.422 98.7109C465.773 98.7109 466.105 98.5352 466.262 98.1836L466.359 98.0859C467.473 95.3711 472.668 87.4414 477.414 83.1836C478.488 82.1875 479.562 81.4062 480.5 80.9766C481.027 80.7227 481.496 80.5859 481.906 80.5859C482.102 80.5859 482.297 80.625 482.473 80.7031C482.648 80.7422 482.785 80.8789 482.941 81.0156C483.156 81.25 483.254 81.5625 483.254 81.9141C483.254 82.2461 483.156 82.6367 482.98 83.0469C482.473 84.2969 481.301 85.8008 479.855 87.2656C478.918 88.2031 477.941 89.082 476.906 89.9805C475.363 90.6836 473.977 91.3867 472.766 92.0312C471.496 92.7344 470.422 93.3984 469.719 93.9648C469.016 94.4727 468.547 94.9414 468.371 95.4102C468.312 95.5273 468.273 95.6641 468.273 95.8203C468.273 95.8984 468.293 95.9961 468.312 96.0742C468.371 96.3086 468.469 96.4844 468.703 96.6797L468.781 96.7773C468.859 96.8359 468.977 96.8555 469.133 96.8555C470.246 96.8555 473.098 95.3516 476.027 93.1641C476.672 92.6953 477.336 92.1875 477.98 91.6602C483.156 89.2773 489.738 86.9141 494.68 86.9141C494.875 86.9141 495.051 86.9336 495.246 86.9336H495.305C495.812 86.9336 496.242 86.4844 496.281 85.9961C496.281 85.4297 495.871 84.9609 495.305 84.9609C495.109 84.9609 494.914 84.9414 494.738 84.9414C490.988 84.9414 486.398 86.1719 482.082 87.7734C483.312 86.4062 484.289 85.0586 484.797 83.7891C485.09 83.125 485.246 82.4805 485.246 81.875C485.246 81.0742 484.973 80.3516 484.426 79.707C484.055 79.3359 483.684 79.0625 483.215 78.8672C482.805 78.6914 482.375 78.6133 481.926 78.6133C481.203 78.6133 480.441 78.8281 479.66 79.1992C478.547 79.707 477.336 80.6055 476.066 81.7188C472.844 84.6289 469.387 89.1797 467.062 92.832C468.098 90.0195 469.621 85.9375 471.496 81.3477C477.414 66.4453 486.574 46.1523 489.465 40C489.523 39.8633 489.562 39.7266 489.562 39.5703C489.562 39.2188 489.367 38.8672 488.996 38.6914C488.879 38.6328 488.742 38.5938 488.605 38.5938Z" fill="#FEDD73"/>
<path d="M499.836 80.8203C497.902 80.8203 496.164 82.4805 494.816 84.7266C493.508 86.9336 492.57 89.7852 492.199 92.1289L492.16 92.793C492.102 93.3594 492.062 93.8672 492.062 94.3164C492.062 96.875 493.02 97.9688 494.445 98.125C494.543 98.1445 494.641 98.1445 494.738 98.1445C496.34 98.1445 498.41 96.6602 500.129 94.707C501.867 92.793 503.312 90.3516 503.645 88.4375C504.914 88.8867 506.574 89.2578 508.625 89.2578C511.418 89.2578 514.953 88.5742 519.27 86.5039C519.621 86.3281 519.836 85.957 519.836 85.5859C519.836 85.4297 519.797 85.293 519.738 85.1562C519.562 84.8047 519.191 84.5898 518.82 84.5898C518.684 84.5898 518.547 84.6289 518.43 84.6875C514.348 86.6602 511.086 87.2852 508.547 87.2852C506.242 87.2852 504.543 86.7578 503.41 86.2305C503.312 86.0938 503.215 85.8984 503.078 85.7617C503.117 85.4297 503.137 85.1172 503.137 84.8242C503.137 84.1406 503.039 83.5352 502.844 83.0469C502.512 82.1094 501.965 81.4453 501.164 81.1133C500.93 80.9766 500.656 80.9375 500.363 80.8789L500.227 80.8398C500.09 80.8203 499.973 80.8203 499.836 80.8203ZM499.914 82.793C499.953 82.793 500.012 82.793 500.051 82.8125L500.09 82.8516C500.188 82.8516 500.285 82.8906 500.363 82.8906C500.656 83.0469 500.832 83.2812 500.969 83.6914C501.125 84.0234 501.164 84.3945 501.164 84.8633H501.125C501.066 84.8438 501.008 84.8438 500.949 84.8438C500.461 84.8438 500.07 85.2148 499.992 85.7031V85.8203C499.992 86.0938 500.109 86.3477 500.285 86.5625C500.324 86.5625 500.461 86.6992 500.832 86.9727C500.656 87.6758 500.363 88.4375 499.953 89.2773C499.895 89.4141 499.875 89.5508 499.875 89.668C499.875 90.0586 500.09 90.4102 500.461 90.5859C500.52 90.625 500.598 90.625 500.695 90.6836C500.129 91.5625 499.445 92.5586 498.684 93.3984C497.238 94.9805 495.715 96.1719 494.719 96.1719H494.621C494.25 96.1328 493.996 95.6445 493.996 94.5117C493.996 94.1016 494.035 93.5742 494.113 92.9688L494.172 92.4609C494.484 90.3125 495.383 87.7344 496.535 85.7617C497.531 84.043 498.742 82.793 499.914 82.793Z" fill="#FEDD73"/>
<path d="M530.793 77.2852C530.461 77.2852 530.148 77.4414 529.934 77.7344C529.934 77.7344 529.426 78.5352 528.527 79.8438C527.551 79.4922 526.398 79.1602 525.246 79.1602C524.387 79.1602 523.508 79.3555 522.707 79.9023C519.289 82.1094 516.359 87.9688 515.285 92.0312C514.992 93.125 514.855 94.0625 514.855 94.8438C514.855 95.8398 515.148 96.6406 515.695 97.0117C515.949 97.207 516.262 97.3242 516.594 97.3242C516.809 97.3242 517.043 97.2852 517.277 97.1875C518.645 96.7773 522.238 92.1289 525.5 87.6367C524.523 89.9219 523.586 92.3242 522.746 94.668C521.633 97.6562 520.793 100.527 520.363 102.734C520.227 103.535 520.168 104.121 520.168 104.766C520.168 106.25 520.578 107.305 521.555 107.695C521.652 107.754 521.73 107.754 521.887 107.793C522.004 107.812 522.141 107.832 522.277 107.832C524.113 107.832 526.926 105.625 529.934 102.441C535.676 96.4062 542.395 87.207 542.961 86.3672C543.059 86.1914 543.098 86.0156 543.098 85.8398C543.098 85.5078 542.961 85.1758 542.688 84.9609C542.531 84.8633 542.355 84.8242 542.18 84.8242C541.828 84.8242 541.496 84.9805 541.281 85.293C540.773 86.1328 534.133 95.1367 528.527 101.094C525.832 103.926 523.469 105.898 522.414 105.898C522.375 105.898 522.336 105.879 522.297 105.879C522.141 105.801 522.062 105.508 522.062 105.039C522.062 104.531 522.141 103.945 522.277 103.047C522.648 100.996 523.547 98.2227 524.562 95.3711C527.082 88.3789 530.734 80.6055 531.613 78.7695C531.711 78.6328 531.77 78.457 531.77 78.2812C531.77 77.9688 531.613 77.6367 531.34 77.4609C531.164 77.3438 530.969 77.2852 530.793 77.2852ZM525.246 81.1523C525.949 81.1523 526.691 81.3281 527.375 81.543C524.055 86.4062 518.449 94.3359 516.828 95.2734V94.8438C516.828 94.2383 516.965 93.4375 517.199 92.5586C518.176 88.8086 520.793 83.457 523.781 81.543C524.211 81.25 524.719 81.1523 525.246 81.1523Z" fill="#FEDD73"/>
<path d="M544.055 79.707C543.645 79.707 543.273 79.9609 543.117 80.3711C543.117 80.3711 539.816 88.8477 538.137 95.3711C538.117 95.4688 538.098 95.5469 538.098 95.6445C538.098 96.0938 538.391 96.4648 538.84 96.582C538.918 96.6016 539.016 96.6211 539.094 96.6211C539.465 96.6211 539.797 96.4062 539.953 96.0742C543.918 87.6758 546.301 85.5664 548.273 85.5664C549.211 85.5664 550.051 86.0547 550.93 86.5625C552.238 87.3047 553.605 88.0664 555.227 88.0664C556.496 88.0664 557.922 87.6172 559.602 86.3281C559.855 86.1328 559.992 85.8398 559.992 85.5469C559.992 85.332 559.934 85.1367 559.797 84.9609C559.602 84.6875 559.328 84.5703 559.035 84.5703C558.82 84.5703 558.586 84.6289 558.391 84.7656C557.199 85.6641 556.184 85.9766 555.266 85.9766C553.996 85.9766 552.922 85.3906 551.906 84.8242C550.637 84.1016 549.406 83.418 548.059 83.418C546.516 83.418 544.816 84.3359 542.707 87.168C543.918 83.75 544.953 81.0742 544.953 81.0742C544.992 80.957 545.012 80.8398 545.012 80.7227C545.012 80.3125 544.777 79.9414 544.387 79.7656C544.27 79.7266 544.172 79.707 544.055 79.707Z" fill="#FEDD73"/>
<path d="M585.871 49.4727C585.48 49.4727 585.109 49.6875 584.914 50.0781C584.855 50.1367 575.988 68.0859 568.332 80.5469C567.453 80.1367 566.516 79.8438 565.539 79.7656C565.227 79.7266 564.934 79.707 564.641 79.707C563.449 79.707 562.316 80.0195 561.34 80.7422C558.586 82.8125 557.043 86.6016 556.672 89.5117C556.633 89.8828 556.613 90.2539 556.613 90.6055C556.613 91.1328 556.652 91.6211 556.711 92.0312C556.906 92.9297 557.277 93.6328 557.824 94.0039C558.176 94.2578 558.586 94.4141 559.055 94.4141C559.27 94.4141 559.504 94.375 559.738 94.2969C561.809 93.5938 565.207 89.1797 568.898 83.418C569.016 83.4766 569.152 83.4961 569.289 83.4961C569.602 83.4961 569.934 83.3398 570.148 83.0859C570.305 82.8906 570.363 82.6562 570.363 82.4414C570.363 82.1484 570.246 81.8555 570.012 81.6406C571.652 79.0039 573.332 76.1914 574.973 73.3398C567.922 90.7422 559.758 113.477 559.758 124.961C559.758 128.34 560.461 130.742 562.121 131.738C562.297 131.855 562.492 131.895 562.688 131.895C563.039 131.895 563.41 131.699 563.625 131.367C563.723 131.211 563.762 131.035 563.762 130.84C563.762 130.488 563.586 130.137 563.254 129.922C562.121 129.199 561.613 127.441 561.613 124.941C561.613 107.441 585.949 52.9102 586.828 51.0742V51.0156C586.906 50.8789 586.945 50.7031 586.945 50.5469C586.945 50.1562 586.73 49.7656 586.359 49.5703C586.203 49.5117 586.027 49.4727 585.871 49.4727ZM564.758 81.8359C564.934 81.8359 565.109 81.8555 565.305 81.875C565.949 81.9531 566.613 82.1094 567.16 82.3828C563.859 87.6758 560.812 91.6602 559.094 92.2266C559.074 92.2266 559.074 92.2266 559.074 92.2461C559.074 92.2461 559.074 92.2656 559.055 92.2656C558.996 92.2266 558.898 91.9922 558.82 91.6602C558.781 91.4062 558.742 91.1133 558.742 90.7812C558.742 90.4688 558.781 90.1172 558.82 89.7461C559.094 87.3047 560.344 84.1602 562.59 82.4805C563.195 82.0117 563.957 81.8359 564.758 81.8359Z" fill="#FEDD73"/>
</svg>
